<svg width="265" height="59" viewBox="0 0 265 59" fill="none" xmlns="http://www.w3.org/2000/svg">
<g filter="url(#filter0_d_764_2)">
<path d="M37.8637 23.176C39.4477 23.56 40.6117 24.208 41.3557 25.12C42.1237 26.008 42.5077 27.184 42.5077 28.648C42.5077 33.136 38.9917 35.38 31.9597 35.38C29.8957 35.38 27.7837 35.32 25.6237 35.2L25.8757 28.288L25.6237 12.016L33.8677 11.98C36.2437 11.98 38.0917 12.484 39.4117 13.492C40.7317 14.476 41.3917 15.904 41.3917 17.776C41.3917 19.024 41.0797 20.116 40.4557 21.052C39.8557 21.988 38.9917 22.696 37.8637 23.176ZM36.3877 18.424C36.3877 17.368 36.0757 16.624 35.4517 16.192C34.8277 15.736 33.7357 15.508 32.1757 15.508H30.4117L30.3037 21.808L33.6877 21.916C34.5997 21.676 35.2717 21.28 35.7037 20.728C36.1597 20.176 36.3877 19.408 36.3877 18.424ZM32.7877 31.888C34.2997 31.888 35.4637 31.588 36.2797 30.988C37.1197 30.388 37.5397 29.524 37.5397 28.396C37.5397 26.692 36.4357 25.636 34.2277 25.228L30.2317 25.3L30.1957 27.856L30.3037 31.744C31.1437 31.84 31.9717 31.888 32.7877 31.888ZM54.1033 16.732C56.8393 16.732 58.9513 17.512 60.4393 19.072C61.9273 20.632 62.6713 22.84 62.6713 25.696C62.6713 28.816 61.8553 31.24 60.2233 32.968C58.6153 34.672 56.3353 35.524 53.3833 35.524C50.6713 35.524 48.5713 34.732 47.0833 33.148C45.5953 31.54 44.8513 29.284 44.8513 26.38C44.8513 23.308 45.6553 20.932 47.2633 19.252C48.8713 17.572 51.1513 16.732 54.1033 16.732ZM53.7073 20.404C52.2193 20.404 51.1513 20.812 50.5033 21.628C49.8793 22.42 49.5673 23.8 49.5673 25.768C49.5673 27.352 49.6993 28.6 49.9633 29.512C50.2513 30.4 50.6953 31.036 51.2953 31.42C51.9193 31.804 52.7473 31.996 53.7793 31.996C55.2913 31.996 56.3593 31.6 56.9833 30.808C57.6313 30.016 57.9553 28.624 57.9553 26.632C57.9553 25.048 57.8113 23.812 57.5233 22.924C57.2353 22.012 56.7913 21.364 56.1913 20.98C55.5913 20.596 54.7633 20.404 53.7073 20.404ZM77.9109 17.38L77.6589 20.836L73.9869 20.584H72.9429L72.8349 29.368L72.9789 35.2H68.4789L68.6589 29.8L68.5869 20.584H67.5429L63.7989 20.836L63.5109 20.476L63.7629 17.02H77.6589L77.9109 17.38ZM93.9773 17.38L93.7253 20.836L90.0533 20.584H89.0093L88.9013 29.368L89.0453 35.2H84.5453L84.7253 29.8L84.6533 20.584H83.6093L79.8653 20.836L79.5773 20.476L79.8293 17.02H93.7253L93.9773 17.38ZM101.659 29.368L101.839 35.2H97.303L97.483 29.8L97.303 17.02H101.911L101.659 29.368ZM123.63 29.44L123.81 35.2H118.878L111.606 23.932H111.354L111.318 28.828L111.462 35.2H107.358L107.538 29.872L107.358 17.02H112.254L119.526 28.288H119.85L119.706 17.2L123.882 16.912L123.63 29.44ZM133.44 29.368L133.62 35.2H129.084L129.264 29.8L129.084 17.02H133.692L133.44 29.368Z" fill="white"/>
<path d="M147.739 13.488C149.707 13.488 151.663 13.884 153.607 14.676L152.815 18.888L152.095 19.176C151.279 18.6 150.427 18.144 149.539 17.808C148.675 17.472 147.883 17.304 147.163 17.304C146.203 17.304 145.435 17.568 144.859 18.096C144.283 18.6 143.995 19.188 143.995 19.86C143.995 20.556 144.307 21.144 144.931 21.624C145.579 22.104 146.587 22.668 147.955 23.316C149.275 23.916 150.343 24.48 151.159 25.008C151.999 25.512 152.707 26.184 153.283 27.024C153.883 27.864 154.183 28.896 154.183 30.12C154.183 31.44 153.823 32.652 153.103 33.756C152.383 34.836 151.363 35.7 150.043 36.348C148.723 36.972 147.199 37.284 145.471 37.284C143.191 37.284 140.899 36.792 138.595 35.808L139.279 31.272L139.819 30.984C140.779 31.824 141.823 32.472 142.951 32.928C144.103 33.36 145.123 33.576 146.011 33.576C147.067 33.576 147.883 33.324 148.459 32.82C149.059 32.292 149.359 31.668 149.359 30.948C149.359 30.18 149.035 29.556 148.387 29.076C147.763 28.596 146.743 28.02 145.327 27.348C144.031 26.772 142.975 26.232 142.159 25.728C141.343 25.224 140.647 24.552 140.071 23.712C139.495 22.872 139.207 21.852 139.207 20.652C139.207 19.308 139.567 18.096 140.287 17.016C141.007 15.912 142.015 15.048 143.311 14.424C144.607 13.8 146.083 13.488 147.739 13.488ZM170.18 19.14L169.928 22.596L166.256 22.344H165.212L165.104 31.128L165.248 36.96H160.748L160.928 31.56L160.856 22.344H159.812L156.068 22.596L155.78 22.236L156.032 18.78H169.928L170.18 19.14ZM188.803 28.032L188.767 30.804C188.791 32.868 188.107 34.464 186.715 35.592C185.347 36.696 183.379 37.248 180.811 37.248C178.315 37.248 176.407 36.696 175.087 35.592C173.767 34.464 173.143 32.868 173.215 30.804L173.251 27.96L173.143 18.78H177.679L177.463 30.156C177.439 31.332 177.715 32.196 178.291 32.748C178.891 33.3 179.791 33.576 180.991 33.576C182.215 33.576 183.115 33.3 183.691 32.748C184.291 32.172 184.579 31.308 184.555 30.156L184.375 18.78H188.947L188.803 28.032ZM201.678 18.636C204.486 18.636 206.634 19.38 208.122 20.868C209.634 22.332 210.39 24.432 210.39 27.168C210.39 30.384 209.538 32.856 207.834 34.584C206.154 36.312 203.73 37.176 200.562 37.176C198.714 37.176 196.422 37.104 193.686 36.96L193.866 31.56L193.686 18.78L201.678 18.636ZM201.39 33.72C204.27 33.72 205.71 31.896 205.71 28.248C205.71 26.112 205.362 24.588 204.666 23.676C203.97 22.74 202.854 22.272 201.318 22.272C200.19 22.272 199.158 22.32 198.222 22.416L198.042 31.128L198.114 33.468C198.69 33.54 199.278 33.6 199.878 33.648C200.478 33.696 200.982 33.72 201.39 33.72ZM218.397 31.128L218.577 36.96H214.041L214.221 31.56L214.041 18.78H218.649L218.397 31.128ZM231.591 18.492C234.327 18.492 236.439 19.272 237.927 20.832C239.415 22.392 240.159 24.6 240.159 27.456C240.159 30.576 239.343 33 237.711 34.728C236.103 36.432 233.823 37.284 230.871 37.284C228.159 37.284 226.059 36.492 224.571 34.908C223.083 33.3 222.339 31.044 222.339 28.14C222.339 25.068 223.143 22.692 224.751 21.012C226.359 19.332 228.639 18.492 231.591 18.492ZM231.195 22.164C229.707 22.164 228.639 22.572 227.991 23.388C227.367 24.18 227.055 25.56 227.055 27.528C227.055 29.112 227.187 30.36 227.451 31.272C227.739 32.16 228.183 32.796 228.783 33.18C229.407 33.564 230.235 33.756 231.267 33.756C232.779 33.756 233.847 33.36 234.471 32.568C235.119 31.776 235.443 30.384 235.443 28.392C235.443 26.808 235.299 25.572 235.011 24.684C234.723 23.772 234.279 23.124 233.679 22.74C233.079 22.356 232.251 22.164 231.195 22.164Z" fill="#E5E5E5" fillOpacity="0.71"/>
<path d="M9 0L9 51" stroke="#9A104B" stroke-width="10"/>
</g>
<defs>
<filter id="filter0_d_764_2" x="0" y="0" width="244.159" height="59" filterUnits="userSpaceOnUse" colorInterpolation-filters="sRGB">
<feFlood flood-opacity="0" result="BackgroundImageFix"/>
<feColorMatrix in="SourceAlpha" type="matrix" values="0 0 0 0 0 0 0 0 0 0 0 0 0 0 0 0 0 0 127 0" result="hardAlpha"/>
<feOffset dy="4"/>
<feGaussianBlur stdDeviation="2"/>
<feComposite in2="hardAlpha" operator="out"/>
<feColorMatrix type="matrix" values="0 0 0 0 0 0 0 0 0 0 0 0 0 0 0 0 0 0 0.25 0"/>
<feBlend mode="normal" in2="BackgroundImageFix" result="effect1_dropShadow_764_2"/>
<feBlend mode="normal" in="SourceGraphic" in2="effect1_dropShadow_764_2" result="shape"/>
</filter>
</defs>
</svg>
